<mxfile host="app.diagrams.net" modified="2023-12-06T15:21:21.208Z" agent="Mozilla/5.0 (X11; Linux x86_64; rv:109.0) Gecko/20100101 Firefox/119.0" version="22.1.6" etag="VyHndYK3_grV4TzjzHGh" type="github">
  <diagram name="Page-1" id="ZUVJHbxu2I8D5UCBXtz8">
    <mxGraphModel>
      <root>
        <mxCell id="0" />
        <mxCell id="1" parent="0" />
      </root>
    </mxGraphModel>
  </diagram>
</mxfile>
